<svg xmlns="http://www.w3.org/2000/svg" fill="none" viewBox="0 0 174 180">
  <path fill="#DD4814" d="M66.44 139.95a26.78 26.78 0 0 1-15.93-22.31 31.48 31.48 0 0 1 14.34-24.77 11.36 11.36 0 0 0 .87 10.33 9.52 9.52 0 0 0 9.68 3.77 9.9 9.9 0 0 0 3.86-16.98 21.9 21.9 0 0 1-7.9-20.04 20.52 20.52 0 0 1 6.42-10.41c-2.37 6.3 4.3 12.51 8.8 15.57 7.95 4.76 15.6 10 22.94 15.67a30.8 30.8 0 0 1 11.7 26.25 29.1 29.1 0 0 1-19.8 22.92c20.77-4.6 42.17-21.05 42.58-44.39a48.34 48.34 0 0 0-28.66-43.04h-.76c.38.91.56 1.9.53 2.89.06-.65.06-1.28 0-1.93.1.76.1 1.52 0 2.28a9.94 9.94 0 0 1-17.4 3.83c-6.85-8.75 0-18.7 1.14-28.33A35.96 35.96 0 0 0 83.91 0c5 8.32-1.66 19.25-6.5 25.47-4.86 6.21-11.88 10.85-17.6 16.27-6.16 5.72-11.81 12-16.88 18.73a56.92 56.92 0 0 0-11.7 47.86A45.62 45.62 0 0 0 66.4 140h.09l-.06-.05Z"/>
  <path fill="#8989EF" d="M68 8.11c2 8.1-6.17 17.96-10.5 21.88a69.85 69.85 0 0 0-15.16 9.7 69.51 69.51 0 0 0-8.6 98.05 69.82 69.82 0 0 0 98.24 8.58 69.37 69.37 0 0 0 24.8-49.6l16.97 6.17a86.65 86.65 0 0 1-30.56 56.75c-36.88 30.89-91.86 26.09-122.8-10.72A86.89 86.89 0 0 1 31.14 26.36 86.85 86.85 0 0 1 68 8.1Zm41.88.89a86.76 86.76 0 0 1 43.49 27.42l.56.66.56.67.07.09a86.55 86.55 0 0 1 3.07 3.96l.18.25a87.93 87.93 0 0 1 1.74 2.48l.25.38.26.4.14.2.29.45.17.27c.4.62.8 1.25 1.18 1.89l.17.29c.24.4.48.79.7 1.19l.13.21a83.88 83.88 0 0 1 3.63 7.05l.14.31.23.52.13.29.22.5.08.17.16.4.22.51.1.23.2.49.44 1.1.14.37c.27.7.52 1.4.77 2.09l.09.24.09.26.17.5a87.1 87.1 0 0 1 .77 2.35l.07.22a72.09 72.09 0 0 1 .81 2.82l.07.27.32 1.22.1.36c.35 1.45.67 2.9.95 4.36l.03.17c.2 1 .37 2 .52 3l.02.12c.24 1.53.43 3.05.58 4.58l.01.11.1 1.04-53.45-20.42 20.02-16.78A69.44 69.44 0 0 0 115.5 29.4c0-9.29-3.75-17.46-5.63-20.39Z"/>
</svg>
